<svg width="32" height="32" viewBox="0 0 32 32" fill="none" xmlns="http://www.w3.org/2000/svg">
<path fill-rule="evenodd" clip-rule="evenodd" d="M1.9373 7.30548L0.631911 6.92211C0.25915 6.81515 0 6.4707 0 6.07899C0 5.68729 0.254982 5.34282 0.631911 5.23588L1.9373 4.85251C3.37711 4.42886 4.49128 3.31349 4.91401 1.86888L5.29649 0.560463C5.51683 -0.186821 6.76126 -0.186821 6.97742 0.560463L7.35991 1.86888C7.78257 3.31622 8.89258 4.4288 10.3366 4.85251L11.642 5.23588C12.0148 5.34283 12.2739 5.68729 12.2739 6.07899C12.2739 6.4707 12.0189 6.81516 11.642 6.92211L10.3366 7.30548C8.89264 7.72913 7.78263 8.8445 7.35991 10.2918L6.97742 11.6002C6.86795 11.9738 6.52706 12.2336 6.13626 12.2336C5.74547 12.2336 5.40597 11.978 5.2951 11.6002L4.91262 10.2918C4.48995 8.84862 3.37995 7.73185 1.93591 7.30548H1.9373ZM32 4.32186V28.9248C32 30.6249 30.6267 32 28.9319 32H4.38601C2.68983 32 1.31795 30.6235 1.31795 28.9248L1.31657 8.95538L1.44406 8.99427C2.306 9.24706 2.97673 9.9221 3.22893 10.7833L3.61142 12.0917C3.93844 13.2154 4.96671 13.9863 6.13767 13.9863C7.30864 13.9863 8.33412 13.214 8.66393 12.0917L9.04641 10.7833C9.29862 9.91934 9.97209 9.24706 10.8313 8.99427L12.1367 8.61089C13.2578 8.28311 14.0269 7.25246 14.0269 6.07877C14.0269 4.90509 13.2564 3.87722 12.1367 3.54665L10.8313 3.16327C9.96934 2.91048 9.29861 2.23544 9.04641 1.37425L9.00761 1.24647H28.9308C30.6269 1.24647 31.9988 2.62295 31.9988 4.32165L32 4.32186ZM12.7116 14.8642C12.7116 17.0478 14.4784 18.8186 16.6568 18.8186C18.8351 18.8186 20.602 17.0476 20.602 14.8642C20.602 12.6809 18.8351 10.9099 16.6568 10.9099C14.4784 10.9099 12.7116 12.6809 12.7116 14.8642ZM25.7699 29.3651C25.131 24.8955 21.2967 21.4576 16.6597 21.4576C12.0227 21.4576 8.18427 24.8967 7.54956 29.3651H25.7737H25.7699Z" fill="white"/>
</svg>
