<svg width="45" height="46" viewBox="0 0 45 46" fill="none" xmlns="http://www.w3.org/2000/svg">
<path fill-rule="evenodd" clip-rule="evenodd" d="M2.72433 10.5016L0.888625 9.95053C0.36443 9.79678 0 9.30162 0 8.73855C0 8.17548 0.358568 7.68031 0.888625 7.52658L2.72433 6.97548C4.74906 6.36649 6.31587 4.76314 6.91032 2.68652L7.44819 0.805665C7.75804 -0.268555 9.50802 -0.268555 9.812 0.805665L10.3499 2.68652C10.9442 4.76706 12.5052 6.3664 14.5359 6.97548L16.3716 7.52658C16.8958 7.68032 17.2602 8.17548 17.2602 8.73855C17.2602 9.30162 16.9016 9.7968 16.3716 9.95053L14.5359 10.5016C12.5053 11.1106 10.9443 12.714 10.3499 14.7944L9.812 16.6753C9.65805 17.2124 9.17867 17.5858 8.62912 17.5858C8.07956 17.5858 7.60214 17.2184 7.44624 16.6753L6.90837 14.7944C6.314 12.7199 4.75305 11.1145 2.72237 10.5016H2.72433ZM45 6.21267V41.5794C45 44.0233 43.0688 46 40.6856 46H6.16783C3.78257 46 1.85337 44.0213 1.85337 41.5794L1.85142 12.8734L2.03071 12.9293C3.24281 13.2927 4.18602 14.263 4.54068 15.501L5.07855 17.3818C5.53844 18.9971 6.98443 20.1053 8.6311 20.1053C10.2778 20.1053 11.7199 18.9952 12.1836 17.3818L12.7215 15.501C13.0762 14.2591 14.0233 13.2926 15.2315 12.9293L17.0672 12.3782C18.6437 11.907 19.7253 10.4254 19.7253 8.73823C19.7253 7.05106 18.6418 5.5735 17.0672 5.09831L15.2315 4.5472C14.0194 4.18381 13.0762 3.21345 12.7215 1.97549L12.667 1.7918H40.6839C43.0691 1.7918 44.9983 3.77049 44.9983 6.21237L45 6.21267ZM17.8756 21.3674C17.8756 24.5061 20.3603 27.0517 23.4236 27.0517C26.4868 27.0517 28.9715 24.506 28.9715 21.3674C28.9715 18.2287 26.4868 15.683 23.4236 15.683C20.3603 15.683 17.8756 18.2287 17.8756 21.3674ZM36.2389 42.2124C35.3405 35.7873 29.9485 30.8453 23.4277 30.8453C16.907 30.8453 11.5091 35.789 10.6166 42.2124H36.2443H36.2389Z" fill="url(#paint0_linear_100_653)"/>
<defs>
<linearGradient id="paint0_linear_100_653" x1="22.5" y1="0" x2="22.5" y2="46" gradientUnits="userSpaceOnUse">
<stop stop-color="#FFD900"/>
<stop offset="1" stop-color="#FF845A"/>
</linearGradient>
</defs>
</svg>
