<svg width="204" height="62" viewBox="0 0 204 62" fill="none" xmlns="http://www.w3.org/2000/svg">
<path d="M92.9866 28.2732L85.9851 54.5179H78.7744L72.6621 41.4218L69.4845 53.3486C69.2771 54.13 68.8213 54.8214 68.1862 55.3199L59.6809 62L67.8425 31.3687L63.7215 33.8253C65.5391 31.0296 67.3754 28.2451 69.1763 25.4381C66.6824 26.4594 64.0092 26.7142 61.4873 25.5524C59.6977 24.7298 58.3751 23.5193 57.6821 21.6718C53.4303 10.337 64.4687 -1.92707 76.2375 0.254049C82.3199 1.38209 85.8637 3.99981 85.8973 4.06539C85.8973 4.06539 80.6312 8.49321 80.1268 8.92606C80.1642 8.90545 74.1266 4.29587 68.5878 8.34706C66.3013 10.0204 64.3305 13.0147 65.1935 16.1627C65.9632 18.9716 69.761 19.515 73.1739 17.109L68.2105 17.0809C69.4359 15.1602 70.6614 13.2396 71.8868 11.3189C72.2417 10.7643 72.8862 9.59314 72.8862 9.6962C72.8862 9.58752 85.4546 9.67934 86.5119 9.68309C83.5398 14.4782 80.5658 19.2751 77.5937 24.0702C76.4879 25.8522 74.8869 27.3213 73.017 28.2638L76.1553 28.2676L82.0155 41.3543L85.5255 28.2638L92.9847 28.2676L92.9866 28.2732ZM30.9333 28.2582L21.3183 43.2693L19.7099 28.2582H10.3565L3.34197 54.5254H10.8236L14.1524 42.0664L14.5634 54.5254H22.045L29.1343 42.0101L25.7867 54.5254H33.2683L40.2829 28.2582H30.9295H30.9333ZM60.5645 54.5254H53.0829L52.7653 50.7721H44.1797L41.8614 54.5254H34.3798L50.7459 28.2582H58.2275L60.5664 54.5254H60.5645ZM52.3525 43.2675L51.9789 37.6385L48.6126 43.2675H52.3543H52.3525ZM94.8696 28.2582L87.855 54.5254H95.3366L102.351 28.2582H94.8696ZM121.056 28.2582L123.395 54.5254H115.913L115.596 50.7721H107.01L104.69 54.5254H97.2084L113.575 28.2582H121.056ZM115.183 43.2675L114.809 37.6385L111.443 43.2675H115.185H115.183ZM135.022 37.4137C136.412 36.3137 137.88 35.7628 139.427 35.7628C140.973 35.7628 142.145 36.3137 142.942 37.4137C143.417 38.0639 143.914 39.3568 143.925 39.3699L151.414 36.3831C151.19 34.8203 150.603 33.3943 149.656 32.1052C147.786 29.5418 145.042 28.2582 141.425 28.2582C137.809 28.2582 134.379 29.5399 131.138 32.1052C127.895 34.6704 125.795 37.7659 124.835 41.3937C123.862 45.0214 124.312 48.1169 126.182 50.6822C128.052 53.2455 130.796 54.5291 134.413 54.5291C138.029 54.5291 141.457 53.2474 144.7 50.6822C146.333 49.3948 147.674 47.9689 148.722 46.4042L142.681 43.3462C142.206 44.0976 141.59 44.7721 140.83 45.3718C139.432 46.4736 137.962 47.0226 136.415 47.0226C134.869 47.0226 133.694 46.4736 132.89 45.3718C132.087 44.2718 131.896 42.9452 132.321 41.3937C132.732 39.844 133.632 38.5173 135.024 37.4155L135.022 37.4137ZM152.634 36.6267C151.111 42.3062 153.469 45.145 159.704 45.145H165.316C166.562 45.145 167.111 45.4317 166.962 46.0089C166.775 46.6834 166.058 47.0207 164.81 47.0207H153.587L151.584 54.5254H162.807C169.043 54.5254 172.921 51.6865 174.442 46.007C175.925 40.4286 173.551 37.6385 167.315 37.6385H161.703C160.455 37.6385 159.927 37.3012 160.114 36.6248C160.263 36.0495 160.962 35.761 162.21 35.761H177.173L179.175 28.2563H164.21C157.975 28.2563 154.115 31.0464 152.632 36.6248L152.634 36.6267ZM157.904 26.5455L167.388 19.0409L170.728 7.58067H178.21L180.21 0.074163H157.764L155.761 7.57879H163.243L157.9 26.5437L157.904 26.5455ZM181.555 0.074163L179.553 7.57879H187.034L181.692 26.5437L191.176 19.039L194.516 7.57879H201.997L204 0.074163H181.553H181.555ZM182.656 29.182H183.69V31.8597H184.895V29.182H185.93V28.0765H182.657V29.182H182.656ZM189.018 30.0871L188.409 28.0765H186.752V31.8597H187.957V29.7498L188.456 31.5899H189.607L190.081 29.761V31.8597H191.282V28.0765H189.625L189.02 30.0871H189.018ZM10.8105 13.8842L11.2215 26.3432H18.7031L25.7924 13.828L22.4448 26.3432H29.9264L36.9428 0.074163H27.5894L17.9745 15.0853L16.3661 0.074163H7.01271L0 26.3432H7.48159L10.8105 13.8842ZM52.373 26.3432L54.3756 18.8385H41.2823L41.7886 16.9629H54.8818L56.8844 9.45823H43.7911L44.2974 7.58254H57.3906L59.3876 0.074163H38.8128L31.7982 26.3413H52.373V26.3432ZM78.1616 26.3432L94.5277 0.074163H102.009L104.348 26.3413H96.8666L96.549 22.588H87.9634L85.6432 26.3413H78.1616V26.3432ZM92.3963 15.0853H96.138L95.7644 9.45635L92.3981 15.0853H92.3963ZM113.447 26.3432L120.705 13.2096L120.929 26.3432H128.411L144.779 0.074163H137.297L127.682 15.0853L127.944 0.074163H120.462L112.717 15.0853L111.109 0.074163H103.627L105.966 26.3413H113.447V26.3432ZM130.206 26.3432L146.574 0.074163H154.055L156.394 26.3413H148.913L148.595 22.588H140.009L137.689 26.3413H130.208L130.206 26.3432ZM144.441 15.0853H148.182L147.809 9.45635L144.442 15.0853H144.441Z" fill="white"/>
</svg>
