<svg width="45" height="45" viewBox="0 0 45 45" fill="none" xmlns="http://www.w3.org/2000/svg">
<path fill-rule="evenodd" clip-rule="evenodd" d="M2.72433 10.2733L0.888625 9.73421C0.36443 9.58381 0 9.09942 0 8.54858C0 7.99775 0.358568 7.51334 0.888625 7.36296L2.72433 6.82384C4.74906 6.22808 6.31587 4.6596 6.91032 2.62812L7.44819 0.78815C7.75804 -0.262717 9.50802 -0.262717 9.812 0.78815L10.3499 2.62812C10.9442 4.66343 12.5052 6.228 14.5359 6.82384L16.3716 7.36296C16.8958 7.51336 17.2602 7.99775 17.2602 8.54858C17.2602 9.09942 16.9016 9.58383 16.3716 9.73421L14.5359 10.2733C12.5053 10.8691 10.9443 12.4376 10.3499 14.4728L9.812 16.3128C9.65805 16.8382 9.17867 17.2035 8.62912 17.2035C8.07956 17.2035 7.60214 16.8441 7.44624 16.3128L6.90837 14.4728C6.314 12.4434 4.75305 10.8729 2.72237 10.2733H2.72433ZM45 6.07761V40.6755C45 43.0663 43.0688 45 40.6856 45H6.16783C3.78257 45 1.85337 43.0643 1.85337 40.6755L1.85142 12.5935L2.03071 12.6482C3.24281 13.0037 4.18602 13.953 4.54068 15.164L5.07855 17.004C5.53844 18.5842 6.98443 19.6682 8.6311 19.6682C10.2778 19.6682 11.7199 18.5822 12.1836 17.004L12.7215 15.164C13.0762 13.9491 14.0233 13.0037 15.2315 12.6482L17.0672 12.1091C18.6437 11.6481 19.7253 10.1988 19.7253 8.54827C19.7253 6.89778 18.6418 5.45234 17.0672 4.98747L15.2315 4.44835C14.0194 4.09286 13.0762 3.14359 12.7215 1.93255L12.667 1.75284H40.6839C43.0691 1.75284 44.9983 3.68853 44.9983 6.07732L45 6.07761ZM17.8756 20.9028C17.8756 23.9734 20.3603 26.4637 23.4236 26.4637C26.4868 26.4637 28.9715 23.9732 28.9715 20.9028C28.9715 17.8325 26.4868 15.342 23.4236 15.342C20.3603 15.342 17.8756 17.8325 17.8756 20.9028ZM36.2389 41.2947C35.3405 35.0093 29.9485 30.1748 23.4277 30.1748C16.907 30.1748 11.5091 35.0109 10.6166 41.2947H36.2443H36.2389Z" fill="#0047FF"/>
</svg>
